<svg width="100" height="100" xmlns="http://www.w3.org/2000/svg"><path d="M0 0h100v100H0z" fill="#f7df1e"/><path d="M67.17 78.13c2.014 3.289 4.635 5.706 9.27 5.706 3.894 0 6.381-1.946 6.381-4.635 0-3.222-2.556-4.363-6.841-6.238l-2.349-1.008c-6.781-2.889-11.29-6.508-11.29-14.16 0-7.048 5.37-12.41 13.76-12.41 5.975 0 10.27 2.079 13.37 7.524l-7.317 4.698c-1.611-2.889-3.349-4.027-6.048-4.027-2.752 0-4.497 1.746-4.497 4.027 0 2.819 1.746 3.96 5.778 5.706l2.349 1.006c7.984 3.424 12.49 6.914 12.49 14.76 0 8.46-6.646 13.1-15.57 13.1-8.727 0-14.37-4.159-17.12-9.61zm-33.2.814c1.476 2.62 2.819 4.833 6.048 4.833 3.087 0 5.035-1.208 5.035-5.905v-31.95h9.397v32.08c0 9.73-5.705 14.16-14.03 14.16-7.524 0-11.88-3.894-14.1-8.583z"/></svg>
