<svg width="119" height="20" xmlns="http://www.w3.org/2000/svg"><path fill="#e9f1f7" d="M0 4.8v2.1h4.7v9.43h2.1V6.9h4.7V4.8zM19.02 9.25c0-.06-.01-.11-.11-.11h-5.02c-.1 0-.11.05-.11.11v4.86c0 .06.01.11.11.11h5.02c.1 0 .11-.05.11-.11zm2.1 4.86c0 1.2-.98 2.21-2.21 2.21h-5.03c-1.23 0-2.21-1.01-2.21-2.21V9.25c0-1.2.98-2.21 2.21-2.21h5.03c1.23 0 2.21 1.01 2.21 2.21zM29.6 7.04q.9 0 1.56.67.66.64.66 1.55v7.06h-2.11V9.25q0-.11-.11-.11h-5.02q-.11 0-.11.11v7.07h-2.1V7.04zM42.77 17.79c0 .6-.22 1.11-.65 1.54-.42.44-.9.66-1.55.67h-5.69v-2.13h5.69c.07 0 .1-.03.1-.1V16.3h-5.13c-.6 0-1.13-.2-1.58-.64-.43-.44-.64-1-.64-1.57V7.04h2.1v7.05c0 .07.04.11.11.11h5.04c.07 0 .1-.04.1-.11V7.04h2.1zM56.52 7.04h2.26v.54l-3.72 4.1 3.72 4.1v.54h-2.26l-3.31-3.58h-1.66v3.58h-2.1V4h2.1v6.62h1.66zM66.62 7.04c.6 0 1.12.22 1.56.66s.66.94.66 1.55v3.49h-7.35v1.37c0 .07.04.11.11.11h7.24v2.1H61.6c-.6 0-1.12-.2-1.56-.64-.44-.43-.65-.94-.65-1.56V9.25c0-.6.21-1.11.65-1.55s.95-.66 1.56-.66zm-5.13 3.58h5.25V9.25c0-.07-.04-.11-.11-.11H61.6c-.07 0-.11.04-.11.11zM79.4 7.04h2.42l-5.13 9.28h-1.92l-5.12-9.28h2.42l3.66 6.74zM82.8 16.32V7.04h2.1v9.28zM82.8 4h2.1v2.11h-2.1zM93.78 7.04q.9 0 1.56.67.66.64.66 1.55v7.06h-2.11V9.25q0-.11-.11-.11h-5.02q-.11 0-.11.11v7.07h-2.1V7.04z"/><g><path fill="#f7df1e" d="M99 0h20v20H99z"/><path fill="#19313d" d="M112.43 15.63c.403.658.933 1.14 1.86 1.14.779 0 1.27-.392 1.27-.93 0-.644-.583-.875-1.44-1.25l-.39-.205c-1.355-.577-2.26-1.3-2.26-2.83 0-1.41 1.072-2.375 2.75-2.375 1.195 0 2.05.311 2.67 1.4l-1.46.94c-.322-.578-.67-.8-1.21-.8-.55 0-.9.344-.9.8 0 .564.344.79 1.15 1.14l.48.2c1.597.685 2.5 1.39 2.5 2.96 0 1.692-1.335 2.61-3.12 2.61-1.745 0-2.87-.83-3.42-1.92zm-6.64.16c.295.524.564.96 1.21.96.617 0 1-.24 1-1.18V9.18h1.9v6.42c0 1.946-1.135 2.83-2.8 2.83-1.505 0-2.396-.772-2.84-1.71z"/></g></svg>
